# xmcd CD database file
#
# Track frame offsets:
#	150
#	11320
#	25528
#	37809
#	50050
#	60003
#	73077
#	84108
#	96438
#	116211
#	133566
#	148047
#
# Disc length: 2147 seconds
#
# Revision: 0
# Processed by: cddbd v1.5.2PL0 Copyright (c) Steve Scherf et al.
# Submitted via: CDex 1.51
#
DISCID=9308610c
DTITLE=John Lee Hooker - Masters of the Blues
DYEAR=2006
DGENRE=Blues
TTITLE0=Boom boom
TTITLE1=Boogie Chillen'
TTITLE2=I'm in the mood
TTITLE3=Crawlin' kingsnake
TTITLE4=Dimples
TTITLE5=Hobo Blues (Live)
TTITLE6=No shoes
TTITLE7=Burning hell
TTITLE8=House rent boogie
TTITLE9=Blues before sunrise
TTITLE10=Sally Mae
TTITLE11=Rock house boogie
EXTD=YEAR: 2006
EXTT0=
EXTT1=
EXTT2=
EXTT3=
EXTT4=
EXTT5=
EXTT6=
EXTT7=
EXTT8=
EXTT9=
EXTT10=
EXTT11=
PLAYORDER=
